<svg xmlns="http://www.w3.org/2000/svg" xmlns:xlink="http://www.w3.org/1999/xlink" width="164.356" height="104.67" viewBox="0 0 164.356 104.67">
  <defs>
    <clipPath id="clip-path">
      <rect id="Rectangle_47" data-name="Rectangle 47" width="48.571" height="104.67" fill="#313715"/>
    </clipPath>
    <clipPath id="clip-path-2">
      <rect id="Rectangle_48" data-name="Rectangle 48" width="65.785" height="104.67" fill="#313715"/>
    </clipPath>
  </defs>
  <g id="Group_163" data-name="Group 163" transform="translate(-6562.669 -1675)">
    <g id="Group_158" data-name="Group 158" transform="translate(6562.669 1675)">
      <path id="Path_41" data-name="Path 41" d="M48.571,0,24.287,24.286,0,0V48.571H48.571Z" transform="translate(0 0.001)" fill="#4d1241"/>
      <g id="Group_157" data-name="Group 157" transform="translate(0 0)">
        <g id="Group_156" data-name="Group 156" clip-path="url(#clip-path)">
          <path id="Path_42" data-name="Path 42" d="M48.571,57.381A24.286,24.286,0,1,1,24.285,33.095,24.287,24.287,0,0,1,48.571,57.381" transform="translate(0 23.003)" fill="#3cb5d6"/>
        </g>
      </g>
    </g>
    <g id="Group_160" data-name="Group 160" transform="translate(6661.241 1675)">
      <g id="Group_159" data-name="Group 159" transform="translate(0 0)" clip-path="url(#clip-path-2)">
        <path id="Path_43" data-name="Path 43" d="M55.232,49.561c-3.634-2.774-5.336.021-7.621-.164-1.934-.153-3.746-3.275-5.243-2.53-2.854,1.454,1.145,6.593,2.881,7.64a42.324,42.324,0,0,0,3.96,2c2.3,1.072,3.209,2.7,3.5,5.232a10.032,10.032,0,0,1-.143,2.526c-1.047,4.445-8.836,8.484-13.308,5.428a10.11,10.11,0,0,1-4.7-6.606c-1.2-5.842-5.421-10.14-6.773-15.857-.822-3.473-1.431-7.139-2.337-10.634-.922-3.612-1.871-7.191-2.628-10.473a92.832,92.832,0,0,0-3.191-10.391C15.36,4.578,13.43,5.388,13.43,5.388s1.556,3.1,7.212,30.431c.234,1.119,2.291,13.16,3.791,17.124.537,1.422,1.473,4.458,2.091,5.8,1.8,3.917,6.55,9.854,6.864,15.206.182,3.093.533,5.655.607,8a24.924,24.924,0,0,0,.794,4.718c1.16,3.265,10.525,13.8,20.468,13.8V92.476c-9.879,0-19.186-5.537-19.416-6.119a21.585,21.585,0,0,1,1.183-5.717c1.3-3.25,3.735-6.222,8.028-6.54,4.786-.344,7.674,1.045,10.206,1.045Z" transform="translate(10.528 4.214)" fill="#313715"/>
        <path id="Path_44" data-name="Path 44" d="M20.088,13.9c-.362,5.978-9.613,14.152-12.512,19.391a38.64,38.64,0,0,0-3.6,9.567C2.743,49.994,4.3,54.427,6.043,58.6c3.061,7.337-.414,10.034,1.978,8.547,2.965-2.415,2.514-8.045,2.3-11.561a49.917,49.917,0,0,1,.068-9.5c.821-6.361,4.674-13.19,7.962-17.964,3.9-5.694,2.487-11.581,1.741-14.221" transform="translate(2.77 10.9)" fill="#313715"/>
        <path id="Path_45" data-name="Path 45" d="M16.629,23.421s.986,4.734-3.191,16.911C2.511,72.182,23.383,75.2,29.325,82.687c0,0,2.3-3.245-7.166-13.627C18.7,65.266,15.583,56.907,18.3,44.967c3.928-17.288-1.672-21.546-1.672-21.546" transform="translate(8.092 18.36)" fill="#313715"/>
        <path id="Path_46" data-name="Path 46" d="M2.529,20.9a15.374,15.374,0,0,1-.542-5.066c.5-7.483,7.3-10.513,8.994-11.627,0,0,3.056-2.093,3.45-4.206,0,0,3.129,7.876-4.046,12.389A20.411,20.411,0,0,0,2.529,20.9" transform="translate(1.531 0)" fill="#313715"/>
        <path id="Path_47" data-name="Path 47" d="M21.2,8.6c.387.76,3.2,4.883-8.333,14.4C1.352,32.509,4.949,39.308,4.949,39.308S-7.342,32.472,6.815,20.661,18.068,6.466,18.068,6.466A3.517,3.517,0,0,1,21.2,8.6" transform="translate(0 5.069)" fill="#313715"/>
        <path id="Path_48" data-name="Path 48" d="M20.278,10.052c1.993.26,3.261,6.477,7.871,7.828,3.389.99,6.993.453,7.792,2.492-1.556.826-.33,3.561,1.234,3.113,1.292-3.632,1.941-17.669-16.9-13.433m6.208,2.8c.168-.446.409-.087.913-.4.539-.508,1.09-1.343,1.964-1.622a3.5,3.5,0,0,1,2.075.125c.391.1.153,1.1-.139,1.358-.623.46-2.465-.3-2.465,1.083.077,2.262,3.059-.071,4.619-.007.762,5.521-8.324,4-6.966-.532" transform="translate(15.896 7.261)" fill="#313715"/>
      </g>
    </g>
  </g>
</svg>
