<svg xmlns="http://www.w3.org/2000/svg" width="157.004" height="157" viewBox="0 0 157.004 157">
  <path id="qrcode" d="M152.1,137.375a4.975,4.975,0,1,1,3.45-1.457A4.715,4.715,0,0,1,152.1,137.375Zm0-39.25a4.975,4.975,0,0,1-4.906-4.906V83.406a4.906,4.906,0,0,1,9.813,0v9.813a4.975,4.975,0,0,1-4.906,4.906Zm0-39.25h-4.906v4.906a4.906,4.906,0,0,1-9.812,0V58.875H117.753v4.906a4.975,4.975,0,0,1-4.906,4.906h-4.906v4.906a4.906,4.906,0,0,1-9.813,0V39.25H83.41a4.879,4.879,0,0,1-3.45-8.356,4.715,4.715,0,0,1,3.45-1.457H98.128V9.813H88.316v4.906a4.715,4.715,0,0,1-1.457,3.45,4.813,4.813,0,0,1-6.9,0,4.715,4.715,0,0,1-1.457-3.45V4.906a4.715,4.715,0,0,1,1.457-3.45A4.715,4.715,0,0,1,83.41,0H152.1a4.715,4.715,0,0,1,3.45,1.457A4.715,4.715,0,0,1,157,4.906V53.969a4.975,4.975,0,0,1-4.906,4.906Zm-4.906-44.156a4.715,4.715,0,0,0-1.457-3.45,4.715,4.715,0,0,0-3.45-1.457H112.847a4.715,4.715,0,0,0-3.45,1.457,4.715,4.715,0,0,0-1.457,3.45V44.156a4.975,4.975,0,0,0,4.906,4.906h29.437a4.975,4.975,0,0,0,4.906-4.906ZM132.472,39.25H122.66a4.975,4.975,0,0,1-4.906-4.906V24.531a4.975,4.975,0,0,1,4.906-4.906h9.812a4.975,4.975,0,0,1,4.906,4.906v9.813a4.975,4.975,0,0,1-4.906,4.906ZM78.5,49.063H83.41a4.906,4.906,0,0,1,0,9.813H68.691v4.906a4.906,4.906,0,0,1-9.813,0V58.875H29.441v9.813h9.813V63.781a4.906,4.906,0,0,1,9.813,0V78.5h4.906a4.906,4.906,0,0,1,0,9.813H44.16a4.975,4.975,0,0,1-4.906-4.906V78.5H24.535a5,5,0,0,1-3.45-1.3,4.073,4.073,0,0,1-1.457-3.144V58.875H9.816v5.364a4.073,4.073,0,0,1-1.457,3.144,5,5,0,0,1-3.45,1.3,5,5,0,0,1-3.45-1.3A4.073,4.073,0,0,1,0,64.239v-9.2a1.382,1.382,0,0,1,.153-.615A.313.313,0,0,0,.078,54.2.313.313,0,0,1,0,53.964V4.906a4.715,4.715,0,0,1,1.457-3.45A4.715,4.715,0,0,1,4.905,0H53.968a4.715,4.715,0,0,1,3.45,1.457,4.715,4.715,0,0,1,1.457,3.45V9.813H63.78a4.715,4.715,0,0,1,3.45,1.457,4.813,4.813,0,0,1,0,6.9,4.715,4.715,0,0,1-3.45,1.457H58.874v9.813H63.78a4.879,4.879,0,0,1,3.45,8.356,4.715,4.715,0,0,1-3.45,1.457H58.874v9.813h9.813V44.156a4.906,4.906,0,0,1,9.813,0v4.906ZM49.066,14.719a4.715,4.715,0,0,0-1.457-3.45,4.715,4.715,0,0,0-3.45-1.457H14.722a4.715,4.715,0,0,0-3.45,1.457,4.715,4.715,0,0,0-1.457,3.45V44.156a4.715,4.715,0,0,0,1.457,3.45,4.715,4.715,0,0,0,3.45,1.457H44.16a4.975,4.975,0,0,0,4.906-4.906ZM34.347,39.25H24.535a4.975,4.975,0,0,1-4.906-4.906V24.531a4.975,4.975,0,0,1,4.906-4.906h9.813a4.975,4.975,0,0,1,4.906,4.906v9.813a4.975,4.975,0,0,1-4.906,4.906ZM4.91,78.5a4.715,4.715,0,0,1,3.45,1.457,4.813,4.813,0,0,1,0,6.9,4.715,4.715,0,0,1-3.45,1.457,4.715,4.715,0,0,1-3.45-1.457,4.813,4.813,0,0,1,0-6.9A4.715,4.715,0,0,1,4.91,78.5ZM73.6,88.313a4.975,4.975,0,1,1,3.45-1.457A4.715,4.715,0,0,1,73.6,88.313ZM83.41,68.688a4.975,4.975,0,1,1-3.45,1.457A4.715,4.715,0,0,1,83.41,68.688Zm34.344,4.906a4.975,4.975,0,1,1,1.457,3.45A4.715,4.715,0,0,1,117.753,73.594ZM4.91,98.125H19.628V93.219a4.879,4.879,0,0,1,8.356-3.45,4.715,4.715,0,0,1,1.457,3.45v4.906H53.972a4.975,4.975,0,0,1,4.906,4.906V93.219a4.906,4.906,0,0,1,9.813,0v9.813H88.316V93.219a4.975,4.975,0,0,1,4.906-4.906h34.344V83.406a4.906,4.906,0,0,1,9.812,0v24.531h4.906a4.906,4.906,0,0,1,0,9.813h-4.906v14.719a4.975,4.975,0,0,1-4.906,4.906H117.753v14.719a4.906,4.906,0,0,1-9.812,0V137.375H98.128v4.906a4.906,4.906,0,0,1-9.812,0v-4.906H83.41a4.906,4.906,0,0,1,0-9.812h4.906V112.844H58.878v24.531h4.906a4.906,4.906,0,0,1,0,9.813H58.878v4.906A4.975,4.975,0,0,1,53.972,157H4.91a4.715,4.715,0,0,1-3.45-1.457A4.715,4.715,0,0,1,0,152.094V103.031a4.715,4.715,0,0,1,1.457-3.45A4.715,4.715,0,0,1,4.91,98.125Zm98.125,29.438H122.66a4.975,4.975,0,0,0,4.906-4.906V103.031a4.975,4.975,0,0,0-4.906-4.906H103.035a4.975,4.975,0,0,0-4.906,4.906v19.625a4.975,4.975,0,0,0,4.906,4.906ZM9.816,142.281a4.715,4.715,0,0,0,1.457,3.45,4.715,4.715,0,0,0,3.45,1.457H44.16a4.975,4.975,0,0,0,4.906-4.906V112.844a4.975,4.975,0,0,0-4.906-4.906H14.722a4.715,4.715,0,0,0-3.45,1.457,4.715,4.715,0,0,0-1.457,3.45ZM24.535,117.75h9.813a4.975,4.975,0,0,1,4.906,4.906v9.813a4.975,4.975,0,0,1-4.906,4.906H24.535a4.975,4.975,0,0,1-4.906-4.906v-9.812a4.975,4.975,0,0,1,4.906-4.906Zm88.313-9.812a4.975,4.975,0,1,1-3.45,1.457A4.715,4.715,0,0,1,112.847,107.938ZM73.6,117.75a4.975,4.975,0,1,1-3.45,1.457A4.715,4.715,0,0,1,73.6,117.75Zm9.813,29.438a4.975,4.975,0,1,1-3.45,1.457A4.715,4.715,0,0,1,83.41,147.188Zm49.062,0h4.906v-4.906a4.906,4.906,0,0,1,9.813,0v4.906H152.1a4.906,4.906,0,0,1,0,9.813H132.472a4.906,4.906,0,0,1,0-9.812Z" transform="translate(0.001)" fill="#313715"/>
</svg>
